<svg width="1520" height="385" viewBox="0 0 1520 385" fill="none" xmlns="http://www.w3.org/2000/svg">
<path fill-rule="evenodd" clip-rule="evenodd" d="M217.442 0H109.306L13.3596 228.328C4.85804 242.902 0 261.12 0 279.338C0 337.634 48.5804 385 106.877 385C126.245 385 161.632 385 161.632 385C129.88 366.669 106.923 318.266 106.923 279.338C106.923 261.12 111.782 242.902 120.283 228.328L217.442 0Z" fill="#00B0FF"/>
<path fill-rule="evenodd" clip-rule="evenodd" d="M217.442 0H109.306L13.3596 228.328C4.85804 242.902 0 261.12 0 279.338C0 337.634 48.5804 385 106.877 385C126.245 385 161.632 385 161.632 385C129.88 366.669 106.923 318.266 106.923 279.338C106.923 261.12 111.782 242.902 120.283 228.328L217.442 0Z" fill="url(#paint0_linear_165_81)"/>
<path fill-rule="evenodd" clip-rule="evenodd" d="M221.04 385H109.305L208.895 151.814C214.967 137.24 218.611 122.666 218.611 105.663C218.611 67.7967 194.999 18.6578 165.017 0C165.017 0 204.253 0 224.683 0C282.98 0 330.346 47.366 330.346 105.663C330.346 122.666 326.702 137.24 320.63 151.814L221.04 385Z" fill="#00B0FF"/>
<path fill-rule="evenodd" clip-rule="evenodd" d="M221.04 385H109.305L208.895 151.814C214.967 137.24 218.611 122.666 218.611 105.663C218.611 67.7967 194.999 18.6578 165.017 0C165.017 0 204.253 0 224.683 0C282.98 0 330.346 47.366 330.346 105.663C330.346 122.666 326.702 137.24 320.63 151.814L221.04 385Z" fill="#171717"/>
<path d="M1382.73 384.242C1305.68 384.242 1246.88 324.428 1246.88 251.434C1246.88 178.947 1306.19 119.133 1382.73 119.133C1460.28 119.133 1519.09 179.454 1519.09 251.434C1519.09 324.428 1459.78 384.242 1382.73 384.242ZM1382.73 316.824C1419.73 316.824 1447.11 287.424 1447.11 251.941C1447.11 216.458 1419.73 187.058 1382.73 187.058C1345.72 187.058 1318.86 216.458 1318.86 251.941C1318.86 287.424 1345.72 316.824 1382.73 316.824Z" fill="#171717"/>
<path d="M1169.57 384.758C1097.08 384.758 1061.09 341.164 1061.09 278.308V187.573H1014.96V126.745H1061.09V62.875L1133.07 62.875V126.745H1221.78V187.573L1133.07 187.573V276.281C1133.07 304.16 1149.8 320.381 1176.16 320.381C1190.86 320.381 1209.61 315.819 1221.78 308.215V372.592C1209.1 380.702 1187.31 384.758 1169.57 384.758Z" fill="#171717"/>
<path d="M938.335 384.758C865.849 384.758 829.859 341.164 829.859 278.308V187.573H783.73V126.745H829.859V62.875L901.839 62.875V126.745H990.546V187.573L901.839 187.573V276.281C901.839 304.16 918.566 320.381 944.925 320.381C959.625 320.381 978.381 315.819 990.546 308.215V372.592C977.874 380.702 956.077 384.758 938.335 384.758Z" fill="#171717"/>
<path d="M723.416 89.2303C699.085 89.2303 678.809 69.4611 678.809 44.623C678.809 20.2917 699.085 0.015625 723.416 0.015625C747.747 0.015625 767.516 20.2917 767.516 44.623C767.516 69.4611 747.747 89.2303 723.416 89.2303ZM687.426 126.741L759.406 126.741V377.657H687.426L687.426 126.741Z" fill="#171717"/>
<path d="M520.658 385.001C443.609 385.001 384.809 325.186 384.809 252.699C384.809 174.636 438.54 119.891 516.603 119.891C541.948 119.891 566.279 129.015 584.528 143.715L585.035 11.4141L657.015 11.4141V252.699C657.015 328.734 599.228 385.001 520.658 385.001ZM520.658 317.076C557.662 317.076 585.035 288.182 585.035 252.699C585.035 217.216 557.662 187.816 520.658 187.816C483.654 187.816 456.789 217.216 456.789 252.699C456.789 288.182 483.654 317.076 520.658 317.076Z" fill="#171717"/>
<defs>
<linearGradient id="paint0_linear_165_81" x1="48.6405" y1="385" x2="210" y2="-37.625" gradientUnits="userSpaceOnUse">
<stop offset="0.65263" stop-color="#00B0FF"/>
<stop offset="0.986642" stop-color="#006A99"/>
</linearGradient>
</defs>
</svg>
